<svg xmlns="http://www.w3.org/2000/svg" width="1664" height="128" viewBox="0 0 1664 128">
<title>Alkaka Shimeji atlas v3 hornless template-ready</title>
<desc>Hornless restrained Shimeji concept atlas; 13 frames, 128px each.</desc>
<rect width="100%" height="100%" fill="none"/>
<g id="idle-soft" transform="translate(0 0)"><g transform=""><path d="M86 77 q20 -9 29 9 q-15 7 -27 6" stroke="#8f684e" stroke-width="10" stroke-linecap="round" fill="none"/><ellipse cx="64" cy="75" rx="24" ry="30" fill="#e4dacb" stroke="#3f312a" stroke-width="4"/><ellipse cx="64" cy="70" rx="6" ry="8" fill="#62a6c6" stroke="#3f312a" stroke-width="2"/><path d="M42 67 q-8 9 -10 20 M86 67 q9 9 10 20" stroke="#3f312a" stroke-width="6" stroke-linecap="round" fill="none"/><path d="M50 93 q-7 12 -15 18 M77 93 q9 10 17 18" stroke="#3f312a" stroke-width="7" stroke-linecap="round" fill="none"/></g><g transform=""><path d="M38 34 C41 19 52 13 64 13 C77 13 88 20 91 35 C89 50 79 60 64 60 C49 60 39 50 38 34 Z" fill="#e4dacb" stroke="#3f312a" stroke-width="4" stroke-linejoin="round"/><path d="M43 34 C48 24 55 20 64 20 C73 20 81 25 86 35" fill="none" stroke="#f4ede2" stroke-width="4" stroke-linecap="round"/><path d="M37 37 q-10 8 -6 19 q9 -5 13 -14" fill="#8f684e" stroke="#3f312a" stroke-width="3" stroke-linejoin="round"/><path d="M91 37 q10 8 6 19 q-9 -5 -13 -14" fill="#8f684e" stroke="#3f312a" stroke-width="3" stroke-linejoin="round"/><circle cx="53" cy="45" r="3.2" fill="#2b2522"/><circle cx="77" cy="45" r="3.2" fill="#2b2522"/><path d="M61 51 q3 3 7 0" stroke="#6a5548" stroke-width="2.2" stroke-linecap="round" fill="none"/></g></g>
<g id="idle-blink" transform="translate(128 0)"><g transform=""><path d="M86 77 q20 -9 29 9 q-15 7 -27 6" stroke="#8f684e" stroke-width="10" stroke-linecap="round" fill="none"/><ellipse cx="64" cy="75" rx="24" ry="30" fill="#e4dacb" stroke="#3f312a" stroke-width="4"/><ellipse cx="64" cy="70" rx="6" ry="8" fill="#62a6c6" stroke="#3f312a" stroke-width="2"/><path d="M42 67 q-8 9 -10 20 M86 67 q9 9 10 20" stroke="#3f312a" stroke-width="6" stroke-linecap="round" fill="none"/><path d="M50 93 q-7 12 -15 18 M77 93 q9 10 17 18" stroke="#3f312a" stroke-width="7" stroke-linecap="round" fill="none"/></g><g transform=""><path d="M38 34 C41 19 52 13 64 13 C77 13 88 20 91 35 C89 50 79 60 64 60 C49 60 39 50 38 34 Z" fill="#e4dacb" stroke="#3f312a" stroke-width="4" stroke-linejoin="round"/><path d="M43 34 C48 24 55 20 64 20 C73 20 81 25 86 35" fill="none" stroke="#f4ede2" stroke-width="4" stroke-linecap="round"/><path d="M37 37 q-10 8 -6 19 q9 -5 13 -14" fill="#8f684e" stroke="#3f312a" stroke-width="3" stroke-linejoin="round"/><path d="M91 37 q10 8 6 19 q-9 -5 -13 -14" fill="#8f684e" stroke="#3f312a" stroke-width="3" stroke-linejoin="round"/><path d="M48 45 q5 3 10 0 M72 45 q5 3 10 0" stroke="#2b2522" stroke-width="3" stroke-linecap="round" fill="none"/><path d="M61 51 q3 3 7 0" stroke="#6a5548" stroke-width="2.2" stroke-linecap="round" fill="none"/></g></g>
<g id="walk-left-step" transform="translate(256 0)"><g transform="rotate(-2.5 64 74)"><path d="M86 75 q22 -11 31 7 q-14 0 -21 12" stroke="#8f684e" stroke-width="10" stroke-linecap="round" fill="none"/><ellipse cx="64" cy="75" rx="24" ry="30" fill="#e4dacb" stroke="#3f312a" stroke-width="4"/><ellipse cx="64" cy="70" rx="6" ry="8" fill="#62a6c6" stroke="#3f312a" stroke-width="2"/><path d="M42 66 q-5.5 8 -11 18 M86 66 q12.5 7 13 17" stroke="#3f312a" stroke-width="6" stroke-linecap="round" fill="none"/><path d="M50 91 q-8 13 -18 18 M76 91 q12 8 21 17" stroke="#3f312a" stroke-width="7" stroke-linecap="round" fill="none"/></g><g transform="translate(-1.25 -0.8333333333333334)"><path d="M38 34 C41 19 52 13 64 13 C77 13 88 20 91 35 C89 50 79 60 64 60 C49 60 39 50 38 34 Z" fill="#e4dacb" stroke="#3f312a" stroke-width="4" stroke-linejoin="round"/><path d="M43 34 C48 24 55 20 64 20 C73 20 81 25 86 35" fill="none" stroke="#f4ede2" stroke-width="4" stroke-linecap="round"/><path d="M37 37 q-10 8 -6 19 q9 -5 13 -14" fill="#8f684e" stroke="#3f312a" stroke-width="3" stroke-linejoin="round"/><path d="M91 37 q10 8 6 19 q-9 -5 -13 -14" fill="#8f684e" stroke="#3f312a" stroke-width="3" stroke-linejoin="round"/><circle cx="53" cy="45" r="3.2" fill="#2b2522"/><circle cx="77" cy="45" r="3.2" fill="#2b2522"/><path d="M61 51 q3 3 7 0" stroke="#6a5548" stroke-width="2.2" stroke-linecap="round" fill="none"/></g></g>
<g id="walk-mid-step" transform="translate(384 0)"><g transform="rotate(0.0 64 74)"><path d="M86 75 q22 -16 31 7 q-14 0 -21 12" stroke="#8f684e" stroke-width="10" stroke-linecap="round" fill="none"/><ellipse cx="64" cy="75" rx="24" ry="30" fill="#e4dacb" stroke="#3f312a" stroke-width="4"/><ellipse cx="64" cy="70" rx="6" ry="8" fill="#62a6c6" stroke="#3f312a" stroke-width="2"/><path d="M42 66 q-8.0 8 -11 18 M86 66 q10.0 7 13 17" stroke="#3f312a" stroke-width="6" stroke-linecap="round" fill="none"/><path d="M50 91 q-8 13 -18 18 M76 91 q12 8 21 17" stroke="#3f312a" stroke-width="7" stroke-linecap="round" fill="none"/></g><g transform="translate(0.0 0.0)"><path d="M38 34 C41 19 52 13 64 13 C77 13 88 20 91 35 C89 50 79 60 64 60 C49 60 39 50 38 34 Z" fill="#e4dacb" stroke="#3f312a" stroke-width="4" stroke-linejoin="round"/><path d="M43 34 C48 24 55 20 64 20 C73 20 81 25 86 35" fill="none" stroke="#f4ede2" stroke-width="4" stroke-linecap="round"/><path d="M37 37 q-10 8 -6 19 q9 -5 13 -14" fill="#8f684e" stroke="#3f312a" stroke-width="3" stroke-linejoin="round"/><path d="M91 37 q10 8 6 19 q-9 -5 -13 -14" fill="#8f684e" stroke="#3f312a" stroke-width="3" stroke-linejoin="round"/><circle cx="53" cy="45" r="3.2" fill="#2b2522"/><circle cx="77" cy="45" r="3.2" fill="#2b2522"/><path d="M61 51 q3 3 7 0" stroke="#6a5548" stroke-width="2.2" stroke-linecap="round" fill="none"/></g></g>
<g id="walk-right-step" transform="translate(512 0)"><g transform="rotate(2.5 64 74)"><path d="M86 75 q22 -21 31 7 q-14 0 -21 12" stroke="#8f684e" stroke-width="10" stroke-linecap="round" fill="none"/><ellipse cx="64" cy="75" rx="24" ry="30" fill="#e4dacb" stroke="#3f312a" stroke-width="4"/><ellipse cx="64" cy="70" rx="6" ry="8" fill="#62a6c6" stroke="#3f312a" stroke-width="2"/><path d="M42 66 q-10.5 8 -11 18 M86 66 q7.5 7 13 17" stroke="#3f312a" stroke-width="6" stroke-linecap="round" fill="none"/><path d="M50 91 q-8 13 -18 18 M76 91 q12 8 21 17" stroke="#3f312a" stroke-width="7" stroke-linecap="round" fill="none"/></g><g transform="translate(1.25 -0.8333333333333334)"><path d="M38 34 C41 19 52 13 64 13 C77 13 88 20 91 35 C89 50 79 60 64 60 C49 60 39 50 38 34 Z" fill="#e4dacb" stroke="#3f312a" stroke-width="4" stroke-linejoin="round"/><path d="M43 34 C48 24 55 20 64 20 C73 20 81 25 86 35" fill="none" stroke="#f4ede2" stroke-width="4" stroke-linecap="round"/><path d="M37 37 q-10 8 -6 19 q9 -5 13 -14" fill="#8f684e" stroke="#3f312a" stroke-width="3" stroke-linejoin="round"/><path d="M91 37 q10 8 6 19 q-9 -5 -13 -14" fill="#8f684e" stroke="#3f312a" stroke-width="3" stroke-linejoin="round"/><circle cx="53" cy="45" r="3.2" fill="#2b2522"/><circle cx="77" cy="45" r="3.2" fill="#2b2522"/><path d="M61 51 q3 3 7 0" stroke="#6a5548" stroke-width="2.2" stroke-linecap="round" fill="none"/></g></g>
<g id="walk-turn-step" transform="translate(640 0)"><g transform="rotate(1.0 64 74)"><path d="M86 75 q22 -18 31 7 q-14 0 -21 12" stroke="#8f684e" stroke-width="10" stroke-linecap="round" fill="none"/><ellipse cx="64" cy="75" rx="24" ry="30" fill="#e4dacb" stroke="#3f312a" stroke-width="4"/><ellipse cx="64" cy="70" rx="6" ry="8" fill="#62a6c6" stroke="#3f312a" stroke-width="2"/><path d="M42 66 q-9.0 8 -11 18 M86 66 q9.0 7 13 17" stroke="#3f312a" stroke-width="6" stroke-linecap="round" fill="none"/><path d="M50 91 q-8 13 -18 18 M76 91 q12 8 21 17" stroke="#3f312a" stroke-width="7" stroke-linecap="round" fill="none"/></g><g transform="translate(0.5 -0.3333333333333333)"><path d="M38 34 C41 19 52 13 64 13 C77 13 88 20 91 35 C89 50 79 60 64 60 C49 60 39 50 38 34 Z" fill="#e4dacb" stroke="#3f312a" stroke-width="4" stroke-linejoin="round"/><path d="M43 34 C48 24 55 20 64 20 C73 20 81 25 86 35" fill="none" stroke="#f4ede2" stroke-width="4" stroke-linecap="round"/><path d="M37 37 q-10 8 -6 19 q9 -5 13 -14" fill="#8f684e" stroke="#3f312a" stroke-width="3" stroke-linejoin="round"/><path d="M91 37 q10 8 6 19 q-9 -5 -13 -14" fill="#8f684e" stroke="#3f312a" stroke-width="3" stroke-linejoin="round"/><circle cx="53" cy="45" r="3.2" fill="#2b2522"/><circle cx="77" cy="45" r="3.2" fill="#2b2522"/><path d="M61 51 q3 3 7 0" stroke="#6a5548" stroke-width="2.2" stroke-linecap="round" fill="none"/></g></g>
<g id="sit-thinking" transform="translate(768 0)"><g transform=""><path d="M85 85 q22 2 26 20 q-20 2 -34 -4" stroke="#8f684e" stroke-width="10" stroke-linecap="round" fill="none"/><ellipse cx="64" cy="75" rx="24" ry="30" fill="#e4dacb" stroke="#3f312a" stroke-width="4"/><ellipse cx="64" cy="78" rx="6" ry="8" fill="#62a6c6" stroke="#3f312a" stroke-width="2"/><path d="M43 73 q-6 10 -4 20 M84 73 q8 8 5 20" stroke="#3f312a" stroke-width="6" stroke-linecap="round" fill="none"/><path d="M46 99 q-10 6 -18 4 M79 99 q11 5 20 2" stroke="#3f312a" stroke-width="7" stroke-linecap="round" fill="none"/></g><g transform=""><path d="M38 34 C41 19 52 13 64 13 C77 13 88 20 91 35 C89 50 79 60 64 60 C49 60 39 50 38 34 Z" fill="#e4dacb" stroke="#3f312a" stroke-width="4" stroke-linejoin="round"/><path d="M43 34 C48 24 55 20 64 20 C73 20 81 25 86 35" fill="none" stroke="#f4ede2" stroke-width="4" stroke-linecap="round"/><path d="M37 37 q-10 8 -6 19 q9 -5 13 -14" fill="#8f684e" stroke="#3f312a" stroke-width="3" stroke-linejoin="round"/><path d="M91 37 q10 8 6 19 q-9 -5 -13 -14" fill="#8f684e" stroke="#3f312a" stroke-width="3" stroke-linejoin="round"/><circle cx="53" cy="45" r="3.2" fill="#2b2522"/><circle cx="77" cy="45" r="3.2" fill="#2b2522"/><path d="M61 51 q3 3 7 0" stroke="#6a5548" stroke-width="2.2" stroke-linecap="round" fill="none"/><path d="M75 38 q6 3 9 9" stroke="#6a5548" stroke-width="3" stroke-linecap="round" fill="none"/></g></g>
<g id="fall-tumble" transform="translate(896 0)"><g transform="rotate(-29 64 70) translate(-4 4)"><path d="M87 75 q18 -25 34 -15 q-7 13 -21 22" stroke="#8f684e" stroke-width="10" stroke-linecap="round" fill="none"/><ellipse cx="64" cy="75" rx="24" ry="30" fill="#e4dacb" stroke="#3f312a" stroke-width="4"/><ellipse cx="64" cy="70" rx="6" ry="8" fill="#62a6c6" stroke="#3f312a" stroke-width="2"/><path d="M42 66 q-18 -7 -24 2 M86 66 q17 -9 26 -1" stroke="#3f312a" stroke-width="6" stroke-linecap="round" fill="none"/><path d="M45 92 q-19 2 -22 -10 M80 91 q18 -5 25 5" stroke="#3f312a" stroke-width="7" stroke-linecap="round" fill="none"/></g><g transform="rotate(-18 64 44) translate(-7 2)"><path d="M38 34 C41 19 52 13 64 13 C77 13 88 20 91 35 C89 50 79 60 64 60 C49 60 39 50 38 34 Z" fill="#e4dacb" stroke="#3f312a" stroke-width="4" stroke-linejoin="round"/><path d="M43 34 C48 24 55 20 64 20 C73 20 81 25 86 35" fill="none" stroke="#f4ede2" stroke-width="4" stroke-linecap="round"/><path d="M37 37 q-10 8 -6 19 q9 -5 13 -14" fill="#8f684e" stroke="#3f312a" stroke-width="3" stroke-linejoin="round"/><path d="M91 37 q10 8 6 19 q-9 -5 -13 -14" fill="#8f684e" stroke="#3f312a" stroke-width="3" stroke-linejoin="round"/><circle cx="53" cy="45" r="3.2" fill="#2b2522"/><circle cx="77" cy="45" r="3.2" fill="#2b2522"/><path d="M61 51 q3 3 7 0" stroke="#6a5548" stroke-width="2.2" stroke-linecap="round" fill="none"/></g></g>
<g id="drag-lifted" transform="translate(1024 0)"><g transform="translate(0 -7)"><path d="M86 72 q19 -2 28 13 q-14 8 -29 2" stroke="#8f684e" stroke-width="10" stroke-linecap="round" fill="none"/><ellipse cx="64" cy="75" rx="24" ry="30" fill="#e4dacb" stroke="#3f312a" stroke-width="4"/><ellipse cx="64" cy="70" rx="6" ry="8" fill="#62a6c6" stroke="#3f312a" stroke-width="2"/><path d="M42 61 q-9 -15 -3 -26 M85 61 q8 -16 2 -27" stroke="#3f312a" stroke-width="6" stroke-linecap="round" fill="none"/><path d="M50 88 q-9 13 -8 24 M76 88 q8 13 6 24" stroke="#3f312a" stroke-width="7" stroke-linecap="round" fill="none"/></g><g transform="translate(0 -8)"><path d="M38 34 C41 19 52 13 64 13 C77 13 88 20 91 35 C89 50 79 60 64 60 C49 60 39 50 38 34 Z" fill="#e4dacb" stroke="#3f312a" stroke-width="4" stroke-linejoin="round"/><path d="M43 34 C48 24 55 20 64 20 C73 20 81 25 86 35" fill="none" stroke="#f4ede2" stroke-width="4" stroke-linecap="round"/><path d="M37 37 q-10 8 -6 19 q9 -5 13 -14" fill="#8f684e" stroke="#3f312a" stroke-width="3" stroke-linejoin="round"/><path d="M91 37 q10 8 6 19 q-9 -5 -13 -14" fill="#8f684e" stroke="#3f312a" stroke-width="3" stroke-linejoin="round"/><circle cx="53" cy="45" r="3.2" fill="#2b2522"/><circle cx="77" cy="45" r="3.2" fill="#2b2522"/><path d="M61 51 q3 3 7 0" stroke="#6a5548" stroke-width="2.2" stroke-linecap="round" fill="none"/></g></g>
<g id="climb-reach" transform="translate(1152 0)"><g transform="rotate(-7 64 74) translate(5 -2)"><path d="M85 76 q25 5 28 24 q-17 -5 -27 -15" stroke="#8f684e" stroke-width="10" stroke-linecap="round" fill="none"/><ellipse cx="64" cy="75" rx="24" ry="30" fill="#e4dacb" stroke="#3f312a" stroke-width="4"/><ellipse cx="64" cy="70" rx="6" ry="8" fill="#62a6c6" stroke="#3f312a" stroke-width="2"/><path d="M43 62 q-16 -8 -20 -20 M85 62 q15 -6 20 -20" stroke="#3f312a" stroke-width="6" stroke-linecap="round" fill="none"/><path d="M49 92 q-10 4 -15 18 M78 92 q12 0 19 15" stroke="#3f312a" stroke-width="7" stroke-linecap="round" fill="none"/></g><g transform="translate(4 -2)"><path d="M38 34 C41 19 52 13 64 13 C77 13 88 20 91 35 C89 50 79 60 64 60 C49 60 39 50 38 34 Z" fill="#e4dacb" stroke="#3f312a" stroke-width="4" stroke-linejoin="round"/><path d="M43 34 C48 24 55 20 64 20 C73 20 81 25 86 35" fill="none" stroke="#f4ede2" stroke-width="4" stroke-linecap="round"/><path d="M37 37 q-10 8 -6 19 q9 -5 13 -14" fill="#8f684e" stroke="#3f312a" stroke-width="3" stroke-linejoin="round"/><path d="M91 37 q10 8 6 19 q-9 -5 -13 -14" fill="#8f684e" stroke="#3f312a" stroke-width="3" stroke-linejoin="round"/><circle cx="53" cy="45" r="3.2" fill="#2b2522"/><circle cx="77" cy="45" r="3.2" fill="#2b2522"/><path d="M61 51 q3 3 7 0" stroke="#6a5548" stroke-width="2.2" stroke-linecap="round" fill="none"/></g></g>
<g id="climb-pull" transform="translate(1280 0)"><g transform="rotate(-7 64 74) translate(5 -2)"><path d="M85 76 q25 5 28 24 q-17 -5 -27 -15" stroke="#8f684e" stroke-width="10" stroke-linecap="round" fill="none"/><ellipse cx="64" cy="75" rx="24" ry="30" fill="#e4dacb" stroke="#3f312a" stroke-width="4"/><ellipse cx="64" cy="70" rx="6" ry="8" fill="#62a6c6" stroke="#3f312a" stroke-width="2"/><path d="M43 62 q-16 4 -20 -20 M85 62 q15 6 20 -20" stroke="#3f312a" stroke-width="6" stroke-linecap="round" fill="none"/><path d="M49 92 q-10 4 -15 18 M78 92 q12 0 19 15" stroke="#3f312a" stroke-width="7" stroke-linecap="round" fill="none"/></g><g transform="translate(4 -2)"><path d="M38 34 C41 19 52 13 64 13 C77 13 88 20 91 35 C89 50 79 60 64 60 C49 60 39 50 38 34 Z" fill="#e4dacb" stroke="#3f312a" stroke-width="4" stroke-linejoin="round"/><path d="M43 34 C48 24 55 20 64 20 C73 20 81 25 86 35" fill="none" stroke="#f4ede2" stroke-width="4" stroke-linecap="round"/><path d="M37 37 q-10 8 -6 19 q9 -5 13 -14" fill="#8f684e" stroke="#3f312a" stroke-width="3" stroke-linejoin="round"/><path d="M91 37 q10 8 6 19 q-9 -5 -13 -14" fill="#8f684e" stroke="#3f312a" stroke-width="3" stroke-linejoin="round"/><circle cx="53" cy="45" r="3.2" fill="#2b2522"/><circle cx="77" cy="45" r="3.2" fill="#2b2522"/><path d="M61 51 q3 3 7 0" stroke="#6a5548" stroke-width="2.2" stroke-linecap="round" fill="none"/></g></g>
<g id="hang-dangle" transform="translate(1408 0)"><g transform="translate(0 8)"><path d="M86 82 q20 2 29 20 q-17 3 -28 -6" stroke="#8f684e" stroke-width="10" stroke-linecap="round" fill="none"/><ellipse cx="64" cy="75" rx="24" ry="30" fill="#e4dacb" stroke="#3f312a" stroke-width="4"/><ellipse cx="64" cy="70" rx="6" ry="8" fill="#62a6c6" stroke="#3f312a" stroke-width="2"/><path d="M43 63 q-14 -20 -8 -42 M85 63 q14 -20 7 -42" stroke="#3f312a" stroke-width="6" stroke-linecap="round" fill="none"/><path d="M49 94 q-4 14 -13 22 M78 94 q5 14 14 22" stroke="#3f312a" stroke-width="7" stroke-linecap="round" fill="none"/></g><g transform="translate(0 5)"><path d="M38 34 C41 19 52 13 64 13 C77 13 88 20 91 35 C89 50 79 60 64 60 C49 60 39 50 38 34 Z" fill="#e4dacb" stroke="#3f312a" stroke-width="4" stroke-linejoin="round"/><path d="M43 34 C48 24 55 20 64 20 C73 20 81 25 86 35" fill="none" stroke="#f4ede2" stroke-width="4" stroke-linecap="round"/><path d="M37 37 q-10 8 -6 19 q9 -5 13 -14" fill="#8f684e" stroke="#3f312a" stroke-width="3" stroke-linejoin="round"/><path d="M91 37 q10 8 6 19 q-9 -5 -13 -14" fill="#8f684e" stroke="#3f312a" stroke-width="3" stroke-linejoin="round"/><circle cx="53" cy="45" r="3.2" fill="#2b2522"/><circle cx="77" cy="45" r="3.2" fill="#2b2522"/><path d="M61 51 q3 3 7 0" stroke="#6a5548" stroke-width="2.2" stroke-linecap="round" fill="none"/></g></g>
<g id="sleep-curl" transform="translate(1536 0)"><g transform="rotate(-7 64 82) translate(0 10)"><path d="M87 91 q24 6 29 19 q-26 8 -45 -4" stroke="#8f684e" stroke-width="10" stroke-linecap="round" fill="none"/><ellipse cx="64" cy="75" rx="24" ry="30" fill="#e4dacb" stroke="#3f312a" stroke-width="4"/><ellipse cx="64" cy="70" rx="6" ry="8" fill="#62a6c6" stroke="#3f312a" stroke-width="2"/><path d="M43 80 q-4 9 0 15 M84 80 q4 9 0 15" stroke="#3f312a" stroke-width="6" stroke-linecap="round" fill="none"/><path d="M44 101 q-11 6 -20 0 M78 101 q10 6 19 0" stroke="#3f312a" stroke-width="7" stroke-linecap="round" fill="none"/></g><g transform="translate(-10 17) rotate(-8 64 45)"><path d="M38 34 C41 19 52 13 64 13 C77 13 88 20 91 35 C89 50 79 60 64 60 C49 60 39 50 38 34 Z" fill="#e4dacb" stroke="#3f312a" stroke-width="4" stroke-linejoin="round"/><path d="M43 34 C48 24 55 20 64 20 C73 20 81 25 86 35" fill="none" stroke="#f4ede2" stroke-width="4" stroke-linecap="round"/><path d="M37 37 q-10 8 -6 19 q9 -5 13 -14" fill="#8f684e" stroke="#3f312a" stroke-width="3" stroke-linejoin="round"/><path d="M91 37 q10 8 6 19 q-9 -5 -13 -14" fill="#8f684e" stroke="#3f312a" stroke-width="3" stroke-linejoin="round"/><path d="M48 45 q5 3 10 0 M72 45 q5 3 10 0" stroke="#2b2522" stroke-width="3" stroke-linecap="round" fill="none"/><path d="M61 51 q3 3 7 0" stroke="#6a5548" stroke-width="2.2" stroke-linecap="round" fill="none"/><path d="M48 48 q4 3 8 0 M72 48 q4 3 8 0" stroke="#2b2522" stroke-width="3" stroke-linecap="round" fill="none"/></g></g>
</svg>
